<svg xmlns="http://www.w3.org/2000/svg" width="1024" height="1024" fill="none" viewBox="0 0 1024 1024"><path fill="#f8f8f8" d="M135 192h813v639H135z"/><path fill="#09090b" d="M1024 1024H.536C.536 0 0 2.7 0 0h1024M677.477 344.209c16.644 15.07 30.621 32.412 41.849 51.757 30.476 52.509 39.097 108.806 27.26 168.201-6.523 32.735-20.209 62.468-39.566 89.605-2.899 4.067-5.968 8.014-9.75 11.301-5.693 4.949-13.603 5.979-18.937 2.62-5.231-3.295-7.475-10.909-5.466-18.262 2.121-7.755 7.235-13.738 11.669-20.147 28.623-41.366 37.726-87.523 33.414-136.946-2.689-30.82-11.721-59.706-28.452-85.689-45.573-70.77-110.718-104.344-194.52-96.721-66.533 6.053-117.232 40.288-151.775 97.333-28.367 46.846-35.587 97.985-24.867 151.264 10.367 51.51 37.478 92.983 80.154 123.732 33.825 24.371 71.845 36.785 113.583 37.445 19.961.315 32.414 11.207 35.206 30.764 1.207 8.458-.025 16.943.679 25.397.532 6.39 2.927 11.813 7.601 16.292 9.16 8.776 20.006 8.719 31.235 5.91 41.357-10.339 78.792-28.701 112.12-55.36 35.871-28.693 64.428-63.367 83.539-105.231 25.58-56.04 32.001-114.816 21.647-175.298-6.759-39.476-21.958-75.71-44.604-108.887-38.737-56.751-90.868-95.208-156.251-115.758-9.938-3.125-19.982-6.194-30.634-6.01-18.437.319-30.876 17.041-25.84 34.818 3.458 12.21 12.064 18.637 23.948 21.355 40.385 9.239 75.891 27.742 106.758 56.515M280.715 508.444c.486-15.803 2.564-31.419 6.12-46.797 7.676-33.193 22.057-63.22 43.019-90.094 26.647-34.161 59.678-59.802 100.204-75.497 11.328-4.388 23.233-6.822 34.79-10.405 13.3-4.126 20.907-17.616 18.454-31.516-2.389-13.527-13.54-22.745-27.371-22.718-8.402.017-16.442 2.03-24.401 4.383-36.109 10.673-68.788 27.938-98.197 51.441-40.756 32.572-70.592 73.215-89.564 121.805-17.801 45.593-23.305 92.766-17.806 141.35 3.371 29.779 10.991 58.391 23.553 85.556 23.061 49.866 57.101 90.507 102.871 121.131 29.843 19.971 61.982 34.616 97.221 41.958 14.462 3.013 28.585-5.137 32.584-18.167 4.187-13.648-2.882-28.543-16.556-34.409-3.947-1.695-8.114-2.928-12.261-4.089-59.217-16.568-105.48-50.616-137.817-103.042-24.521-39.756-36.127-83.177-34.843-130.89"/><path fill="#09090b" d="M528.005 593.971c-15.849 2.192-31.012.529-46.033-2.947-2.649-.613-4.889-.002-7.223 1.008-16.508 7.143-33.016 14.287-49.558 21.349-2.742 1.171-5.589 2.285-8.499 2.835-6.694 1.264-11.354-4.171-9.178-10.602 4.173-12.33 9.997-23.977 15.259-35.845 2.619-5.907 2.429-10.049-1.924-15.585-29.937-38.07-28.919-91.23 1.877-128.892 53.473-65.394 158.651-50.746 191.222 27.197 16.764 40.118 7.017 85.604-28.291 116.147-16.475 14.251-35.717 22.336-57.652 25.335m91.701 9.228c8.666 13.801 4.55 28.835-9.13 34.448-9.851 4.042-21.109.187-26.875-9.202-5.871-9.561-4.153-21.067 4.25-28.483 8.036-7.091 19.697-7.202 28.357-.216 1.156.932 2.122 2.101 3.398 3.453"/></svg>
